# xmcd CD database file
#
# Track frame offsets:
#	150
#	19625
#	35004
#	49638
#	71636
#	92016
#	107145
#	123080
#	137343
#	152811
#	169036
#	192361
#	205721
#	219992
#	244881
#	267242
#	280688
#	295690
#	310696
#	324385
#
# Disc length: 4504 seconds
#
# Revision: 2
# Processed by: cddbd v1.5.2PL0 Copyright (c) Steve Scherf et al.
# Submitted via: CDex 1.70beta2
#
DISCID=14119614
DTITLE=Louis Armstrong - Red Collection [CD4]
DYEAR=2007
DGENRE=Jazz
TTITLE0=Yellow Dog Blues
TTITLE1=A Vie En Rose
TTITLE2=Tiger Rag
TTITLE3=Tea For Two
TTITLE4=Royal Garden Blues
TTITLE5=Undecided
TTITLE6=Stardust
TTITLE7=Put' Em Down Blues
TTITLE8=Savoy Blues
TTITLE9=Stars Fell On Alabama
TTITLE10=Tenderly
TTITLE11=SOL Blues
TTITLE12=Skid-Dat-Di-Dat
TTITLE13=Otchi-tchor-Ni-Ya
TTITLE14=That's My Desire
TTITLE15=Struttin' With Some Barbecue
TTITLE16=Sugar Food Strut
TTITLE17=The Gipsy
TTITLE18=That's When I'll Come Back To You
TTITLE19=The Memphis Blues
EXTD=YEAR: 2007
EXTT0=
EXTT1=
EXTT2=
EXTT3=
EXTT4=
EXTT5=
EXTT6=
EXTT7=
EXTT8=
EXTT9=
EXTT10=
EXTT11=
EXTT12=
EXTT13=
EXTT14=
EXTT15=
EXTT16=
EXTT17=
EXTT18=
EXTT19=
PLAYORDER=
